<?xml version="1.0" standalone="no"?>
<!DOCTYPE svg PUBLIC "-//W3C//DTD SVG 1.1//EN" "http://www.w3.org/Graphics/SVG/1.1/DTD/svg11.dtd">
<svg xmlns="http://www.w3.org/2000/svg" xmlns:xlink="http://www.w3.org/1999/xlink" width="848" height="1024" viewBox="0 0 848 1024"><path fill="#93AEB0" d="M583.385 82.4461C585.416 82.2856 587.475 82.0133 588.939 83.6166C594.327 89.5165 599.409 97.8485 603.941 104.395C625.878 136.085 642.115 166.535 642.46 206.16C642.761 240.729 631.163 273.319 612.917 302.394C599.828 322.922 583.77 341.398 565.265 357.219C525.613 391.224 488.758 404.715 439.163 418.056C378.443 434.851 316.114 451.633 272.042 499.702C238.127 536.694 214.435 570.139 204.344 619.535C195.26 662.191 198.12 706.528 212.61 747.664C220.42 770.484 230.652 791.057 241.302 812.583L274.103 878.24C277.455 884.988 294.614 916.5 294.613 921.288C294.613 921.425 294.605 921.562 294.602 921.699C291.301 921.761 289.603 921.456 287.744 918.503C282.978 910.931 279.211 902.682 275.186 894.683L254.003 852.699C213.722 772.922 180.107 713.653 197.356 620.33C204.377 582.344 219.42 555.158 242.581 524.3C254.775 508.055 273.823 487.191 289.612 474.533C333.563 439.299 392.713 424.719 446.051 409.488C479.97 400.31 514.376 388.128 542.984 367.113C594.341 329.386 638.302 269.028 635.92 202.845C635.287 188.739 632.554 174.806 627.813 161.505C618.392 134.528 599.438 110.013 584.039 86.2165C582.838 84.3609 583.054 84.3648 583.385 82.4461Z"/><path fill="#93AEB0" d="M646.132 82.0392C647.915 81.9692 649.68 81.7294 651.024 82.9517C655.915 87.387 658.741 94.0647 662.268 99.4966C707.013 168.414 703.028 252.497 659.892 322.465C647.139 342.832 632.094 361.669 615.051 378.609C608.784 384.899 602.071 391.489 595.361 397.352C562.598 425.983 521.6 446.659 480.072 459.195C429.818 474.366 373.377 485.188 329.804 516.212C305.333 533.635 278.722 569.429 264.943 596.324C247.08 634.837 246.37 687.975 260.852 727.744C267.592 746.405 277.362 766.001 286.112 783.993C301.501 815.379 317.163 846.631 333.098 877.744C335.925 883.402 353.877 918.831 353.999 922.042C351.729 921.977 348.474 921.414 347.242 919.392C339.675 906.971 332.976 891.981 326.435 879.062C310.459 848.004 294.816 816.775 279.51 785.38C269.689 765.185 257.408 741.65 251.45 720.372C235.548 660.862 245.227 601.779 284.19 553.925C317.967 512.439 345.597 493.248 396.768 477.213C471.332 453.849 533.884 444.129 594.395 389.662C667.343 324.002 714.852 226.617 671.381 130.218C667.522 121.09 662.764 112.904 657.677 104.487C654.547 99.3089 645.567 87.6567 646.132 82.0392Z"/><path fill="#93AEB0" d="M551.344 82.5511C553.293 82.2805 555.206 81.9888 556.765 83.4098C562.517 88.6492 568.322 97.878 572.709 104.277C593.106 134.03 612.049 158.897 615.838 196.113C619.144 228.589 609.986 258.141 593.627 286.063C584.965 300.847 575.887 310.572 564.932 322.935C520.392 373.197 461.767 385.863 399.722 402.551C375.851 408.972 348.287 418.682 325.933 429.557C288.684 447.598 259.038 471.733 233.479 504.211C208.109 536.451 191.932 563.137 181.993 602.775C168.77 655.92 171.802 711.81 190.699 763.212C203.085 797.9 221.457 830.797 237.537 863.9C242.689 874.506 263.819 912.759 264.694 921.574C264.712 921.757 264.724 921.94 264.738 922.123C259.674 920.738 257.567 918.457 255.268 913.747C235.599 873.451 214.398 833.903 195.804 793.092C182.22 763.275 172.627 731.806 169.027 699.166C163.272 646.647 171.804 592.155 197.358 545.583C205.073 531.533 214.801 518.545 224.45 505.797C254.694 464.84 287.801 439.958 333.939 419.044C407.208 385.831 492.516 386.324 552.461 327.218C560.406 319.564 567.447 310.954 574.48 302.498C606.337 264.2 621.189 208.271 600.2 161.288C590.851 139.687 576.374 121.041 562.972 101.891C560.392 98.2055 551.252 86.2175 551.344 82.5511Z"/><path fill="#93AEB0" d="M615.092 82.5592C619.776 82.3157 621.827 84.9542 624.445 88.5345C630.538 96.9969 635.961 106.097 641.427 114.939C689.236 192.281 668.746 282.096 610.179 347.155C572.134 389.417 534.914 414.651 480.271 432.317C429.854 448.555 375.89 458.602 329.78 485.963C287.896 510.816 246.931 562.618 232.886 609.3C222.754 642.975 221.751 690.699 232.657 724.346C252.195 784.632 286.849 841.311 313.738 898.566C316.707 904.928 324.971 916.459 323.143 922.909C316.271 921.334 308.933 903.336 305.73 896.907L289.712 865.158C270.467 827.387 249.82 788.011 233.982 748.728C213.486 698.123 212.852 634.502 235.172 584.315C248.913 553.417 281.688 512.931 308.525 492.371C362.931 450.69 435.51 443.783 497.744 419.524C513.931 413.325 529.49 405.596 544.208 396.441C585.11 370.548 625.953 326.483 645.522 281.986C663.364 241.416 667.771 194.819 652.431 152.831C648.222 141.31 643.716 132.231 637.753 121.439C634.363 115.344 630.74 109.382 626.892 103.565C623.209 97.9819 618.13 90.7989 614.764 84.9068C614.233 83.9773 614.728 83.3415 615.092 82.5592Z"/><path fill="#93AEB0" d="M677.242 81.2294C684.056 81.9367 690.718 96.2373 693.783 101.96C771.502 247.05 664.118 408.833 528.017 468.41C458.795 498.712 373.049 500.682 320.201 560.396C313.542 567.919 307.595 575.975 301.952 584.289C282.75 611.767 274.656 637.909 276.152 671.595C276.759 687.277 279.698 702.781 284.872 717.597C291.704 737.527 303.862 760.372 313.44 779.503L361.792 876.189C366.446 885.544 381.773 912.872 382.164 921.411C382.173 921.602 382.177 921.793 382.183 921.983C377.853 921.492 376.771 919.835 374.68 916.018C370.631 908.625 366.885 901.004 363.135 893.454C357.185 881.36 351.146 869.31 345.019 857.305C332.872 833.272 320.865 809.167 308.998 784.994C300.88 768.556 292.71 752.032 284.933 735.519C267.299 698.506 264.711 649.951 279.254 611.559C289.372 584.848 317.545 549.39 340.666 532.59C381.919 502.613 438.841 491.751 487.147 476.76C502.761 471.896 518.072 466.109 532.999 459.428C601.912 428.1 668.935 362.123 696.391 291.674C721.582 227.037 719.049 159.123 685.152 98.8934C682.469 94.1249 675.154 86.3553 677.242 81.2294Z"/><path fill="#93AEB0" d="M520.891 82.3533C525.275 82.3526 527.763 84.049 530.143 87.7337C541.384 105.137 554.579 121.46 565.89 138.742C569.688 144.543 573.243 150.501 576.545 156.599C595.677 192.099 594.958 225.992 577.85 262.341C570.152 278.695 561.55 288.88 550.213 302.398C511.707 348.312 456.698 361.462 401.336 375.667C368.308 384.437 333.741 396.255 303.29 412.473C252.742 439.395 212.925 481.825 183.75 530.738C166.819 559.125 158.076 585.691 152.286 618.116C137.068 703.338 160.742 768.587 197.954 843.423L225.303 897.268C228.439 903.548 235.218 915.936 236.644 922.262C234.827 922.229 231.713 921.918 230.737 920.429C223.215 908.959 214.66 890.766 208.588 878.649C175.767 813.573 141.755 749.909 141.602 674.891C141.478 614.064 155.684 555.961 192.216 506.567C204.945 489.355 216.096 473.792 231.178 458.222C276.348 411.589 336.008 386.624 397.792 370.436C451.884 356.122 501.593 345.832 540.915 303.017C559.992 283.815 570.176 266.41 578.901 241.497C598.824 184.612 562.103 144.714 531.776 101.372C528.755 97.054 520.883 87.5996 520.891 82.3533Z"/><path fill="#7E7B7D" d="M796.573 950.295C797.466 951.225 799.875 955.545 800.376 956.694C804.911 967.083 809.719 968.45 819.815 972.797C805.869 977.199 801.608 983.787 796.924 996.768C795.782 993.725 794.547 990.716 793.222 987.747L791.021 992.728C790.906 992.854 790.282 993.153 790.101 993.248C788.837 992.237 787.694 989.167 786.975 987.546C783.183 979.001 775.975 975.587 767.644 972.512C769.129 972.019 770.597 971.48 772.047 970.894C783.174 966.271 785.463 960.259 789.828 949.851L793.587 957.938L796.573 950.295Z"/><path fill="#C0BEBE" d="M793.158 958.431C799.293 966.813 801.897 968.692 811.697 972.586C802.308 976.284 797.929 978.414 793.099 987.491C787.879 978.781 783.001 976.115 773.508 972.919C783.577 969.139 786.993 967.005 793.158 958.431Z"/></svg>